<?xml version="1.0" encoding="utf-8"?>
<!-- Svg Vector Icons : http://www.onlinewebfonts.com/icon -->
<!DOCTYPE svg PUBLIC "-//W3C//DTD SVG 1.1//EN" "http://www.w3.org/Graphics/SVG/1.1/DTD/svg11.dtd">
<svg version="1.1" xmlns="http://www.w3.org/2000/svg" xmlns:xlink="http://www.w3.org/1999/xlink" x="0px" y="0px" viewBox="0 0 1000 1000" enable-background="new 0 0 1000 1000" xml:space="preserve">
<metadata> Svg Vector Icons : http://www.onlinewebfonts.com/icon </metadata>
<g><g transform="translate(0.000000,511.000000) scale(0.100000,-0.100000)"><path d="M3471.7,4965.7c-51.3-23.3-121.3-72.3-156.3-109.7c-116.7-126-135.3-207.7-135.3-616v-373.3H2060c-1057,0-1127-2.3-1208.7-44.3C751,3771,681,3698.7,627.3,3593.7C597,3533,590,3435,590,3040.7c0-466.7,0-478.3,51.3-513.3c42-30.3,128.3-37.3,443.3-37.3h392V-956.3c0-3306.3,2.3-3453.3,44.3-3542c53.7-114.3,149.3-207.7,263.7-254.3c77-32.7,438.7-37.3,3220-37.3c3000.7,0,3138.3,2.3,3227,44.3C8346-4692,8439.3-4596.3,8486-4482c32.7,77,37.3,471.3,37.3,3530.3V2490h392c315,0,401.3,7,443.3,37.3c51.3,35,51.3,46.7,51.3,513.3c0,518-14,583.3-144.7,700c-140,128.3-114.3,126-1323,126h-1120l-7,406l-7,406l-72.3,91c-88.7,107.3-198.3,184.3-310.4,217c-51.3,14-613.7,23.3-1472.3,23.3C3651.3,5010,3560.3,5005.3,3471.7,4965.7z M6423.3,4725.3c58.3-30.3,119-79.3,133-112c18.7-37.3,30.3-177.3,30.3-401.3v-345.3H5000H3413.3v347.7c0,191.3,9.3,375.7,23.3,408.3c11.7,32.7,56,81.7,98,107.3c74.7,44.3,119,46.7,1430.3,46.7h1355.7L6423.3,4725.3z M9057.7,3600.7c102.7-53.7,119-123.7,119-504v-350H5000H823.3v368.7c0,389.7,11.7,427,128.3,490c32.7,18.7,1183,25.7,4043.7,28C8409,3633.3,9001.7,3628.7,9057.7,3600.7z M8290-928.3c0-3791.7,11.7-3525.7-151.7-3595.7c-119-49-6157.7-49-6276.7,0c-163.3,70-151.7-196-151.7,3595.7V2490h3290h3290V-928.3z"/><path d="M3217.3,1636c-32.7-32.7-37.3-305.7-37.3-2667c0-2013.7,7-2636.7,28-2657.7c35-35,142.3-35,177.3,0c21,21,28,644,28,2657.7c0,2361.3-4.7,2634.3-37.3,2667c-18.7,21-56,37.3-79.3,37.3S3236,1657,3217.3,1636z"/><path d="M4920.7,1636c-32.7-32.7-37.3-305.7-37.3-2667c0-2013.7,7-2636.7,28-2657.7c35-35,142.3-35,177.3,0c21,21,28,644,28,2657.7c0,2361.3-4.7,2634.3-37.3,2667c-18.7,21-56,37.3-79.3,37.3C4976.7,1673.3,4939.3,1657,4920.7,1636z"/><path d="M6624,1636c-32.7-32.7-37.3-305.7-37.3-2667c0-2013.7,7-2636.7,28-2657.7c44.3-44.3,154-35,182,16.3c16.3,30.3,23.3,903,23.3,2660c0,2342.7-4.7,2615.7-37.3,2648.3c-18.7,21-56,37.3-79.3,37.3C6680,1673.3,6642.7,1657,6624,1636z"/></g></g>
</svg>